<svg height="640" preserveAspectRatio="xMidYMid meet" viewBox="0 0 640 640" width="640" xmlns="http://www.w3.org/2000/svg" xmlns:xlink="http://www.w3.org/1999/xlink"><defs><path id="a" d="m207.59 52.45 1.5.11 1.51.15 1.52.19 1.52.24 1.53.27 1.54.32 1.54.35 1.53.39 1.54.43 1.54.46 1.53.5 1.53.54 1.53.56 1.51.61 1.51.63 1.5.67 1.48.69 1.47.73 1.45.76 1.44.79 1.42.81 1.41.84 1.38.87 1.35.89 1.34.92 1.31.95 1.28.96 1.25.99 1.22 1.02 1.2 1.03 1.16 1.05 1.12 1.08 1.09 1.09 1.05 1.11 1.01 1.13.98 1.15.93 1.16.89 1.18 14.8 20.24.38.51.42.51.44.5.48.51.49.5.53.49.54.5.57.49.59.48.61.48.62.47.65.46.66.46.67.44.69.44.71.43.71.42.72.4.73.4.74.38.75.37.75.36.76.35.75.32.76.32.77.3.75.28.76.26.76.25.75.23.74.21.74.19.73.17.72.15.71.13.7.1.68.09.67.06.66.03.64.01h197.73l1.77.04 1.75.11 1.72.17 1.71.25 1.68.31 1.67.37 1.63.44 1.61.5 1.58.57 1.56.62 1.52.68 1.49.74 1.46.79 1.42.85 1.39.9 1.35.95 1.31 1 1.27 1.05 1.23 1.09 1.19 1.15 1.14 1.18 1.1 1.23 1.05 1.27 1 1.31.95 1.35.9 1.39.84 1.42.8 1.46.73 1.49.68 1.53.63 1.55.56 1.58.5 1.61.44 1.64.38 1.66.31 1.68.24 1.71.18 1.73.1 1.74.04 1.77v61.34h56.41l1.11.02 1.1.03 1.09.06 1.08.08 1.08.1 1.06.13 1.06.14 1.05.17 1.04.19 1.03.22 1.02.23 1 .26 1 .28.99.3.97.32.96.34.95.36.94.39.92.4.91.42.9.45.89.46.87.48.85.51.84.52.83.55.81.56.79.58.78.6.76.62.75.64.73.65.71.68.7.69.67.71.66.73.64.75.63.76.6.79.58.8.56.81.54.83.52.84.49.85.47.86.45.88.43.88.4.9.38.9.35.92.33.92.31.93.29.95.26.95.24.96.22.96.19.98.17.98.15.99.12.99.1 1 .07 1.01.06 1.01.02 1.01.01 1.02-.02 1.03-.04 1.03-.07 1.03-.09 1.03-.12 1.04-.13 1.04-.17 1.05-.18 1.04-.21 1.05-.24 1.05-.25 1.05-.29 1.05-.3 1.05-.33 1.05-.36 1.05-94.27 269.27-.69 1.85-.76 1.84-.82 1.82-.89 1.79-.95 1.76-1.02 1.74-1.07 1.71-1.13 1.68-1.19 1.65-1.24 1.62-1.29 1.58-1.34 1.55-1.39 1.51-1.43 1.48-1.48 1.43-1.53 1.4-1.56 1.35-1.6 1.32-1.64 1.26-1.68 1.23-1.7 1.17-1.74 1.13-1.77 1.08-1.79 1.03-1.82.97-1.85.92-1.87.87-1.88.81-1.91.76-1.92.69-1.94.64-1.94.57-1.96.52-1.97.44-1.98.39-1.98.31-1.98.25-1.99.18-1.98.11-1.98.03h-436.82l-1.11-.01-1.1-.03-1.09-.06-1.09-.08-1.07-.1-1.07-.13-1.06-.15-1.05-.17-1.04-.19-1.03-.21-1.01-.24-1.01-.25-1-.28-.98-.3-.98-.32-.96-.34-.95-.36-.94-.39-.92-.4-.91-.42-.9-.45-.88-.46-.87-.49-.86-.5-.84-.52-.82-.55-.82-.56-.79-.58-.78-.6-.76-.62-.75-.64-.73-.65-.71-.68-.69-.69-.68-.71-.66-.73-.64-.75-.62-.77-.6-.78-.59-.8-.32-.46-.31-.46-.31-.47-.3-.48-.29-.47-.29-.48-.28-.49-.27-.49-.26-.49-.26-.49-.24-.5-.24-.51-.24-.5-.22-.51-.22-.51-.21-.52-.21-.52-.19-.52-.19-.52-.18-.53-.17-.53-.17-.54-.16-.53-.15-.54-.14-.54-.14-.55-.13-.55-.12-.54-.11-.56-.11-.55-.1-.56-.09-.56-.08-.56-.08-.56-.07-.56-.06-.57-.05-.57-.05-.57-.03-.57-.03-.57-.05-.14-.05-.14-.05-.14-.04-.14-.05-.14-.04-.14-.04-.14-.04-.14-.04-.14-.04-.14-.04-.14-.03-.14-.04-.15-.03-.14-.04-.14-.03-.15-.03-.14-.03-.15-.02-.14-.03-.15-.03-.15-.02-.14-.02-.15-.03-.15-.02-.15-.02-.14-.01-.15-.02-.15-.02-.15-.01-.15-.01-.15-.02-.15-.01-.15-.01-.16v-.15l-.01-.15v-.15l-.01-.16v-.15-.15-387.19l.04-1.77.1-1.74.18-1.73.24-1.71.31-1.68.38-1.66.44-1.64.5-1.61.56-1.58.62-1.55.69-1.53.73-1.49.8-1.46.84-1.42.9-1.39.95-1.35 1-1.31 1.05-1.27 1.1-1.23 1.14-1.18 1.19-1.15 1.23-1.09 1.27-1.05 1.31-1 1.35-.95 1.39-.9 1.42-.85 1.46-.79 1.49-.74 1.52-.68 1.55-.62 1.59-.57 1.61-.5 1.63-.44 1.66-.37 1.69-.31 1.71-.25 1.72-.17 1.75-.11 1.76-.04h20.55l.5-.01.51-.03.52-.06.52-.07.53-.1.53-.12.53-.14.53-.16.54-.17.54-.2.53-.21.54-.23.53-.24.53-.26.53-.28.52-.29.52-.3.51-.32.51-.33.49-.34.49-.36.48-.36.47-.38.46-.39.45-.39.44-.41.42-.41.41-.42.39-.43.38-.44.36-.44.35-.45.32-.45.31-.45.29-.46.27-.47.24-.46.23-.47.2-.47.18-.47 4.71-13.33.57-1.52.62-1.49.67-1.47.72-1.46.77-1.43.81-1.4.86-1.38.91-1.36.95-1.33 1-1.3 1.03-1.27 1.07-1.24 1.11-1.22 1.15-1.18 1.18-1.15 1.22-1.12 1.24-1.08 1.28-1.05 1.31-1.01 1.34-.97 1.36-.94 1.39-.89 1.42-.86 1.43-.82 1.46-.77 1.48-.73 1.49-.69 1.52-.64 1.53-.6 1.54-.55 1.56-.5 1.57-.45 1.58-.41 1.59-.35 1.6-.3 1.6-.25 1.61-.19 1.61-.14 1.62-.09 1.61-.03h68.52l1.47.02zm-47.78 200.32-.89.05-.9.09-.9.13-.91.16-.92.2-.91.22-.92.26-.92.3-.91.32-.91.35-.91.38-.9.4-.9.43-.89.46-.88.49-.87.51-.86.53-.85.55-.83.58-.82.59-.8.62-.79.64-.76.65-.75.67-.73.69-.7.7-.69.72-.65.73-.63.74-.61.76-.58.77-.54.78-.52.79-.49.8-.45.8-.42.81-.39.82-.34.83-.31.83-94.27 269.27-.08.23-.08.24-.08.23-.06.23-.07.23-.06.23-.06.23-.05.22-.05.22-.05.22-.04.22-.03.21-.04.21-.03.21-.02.21-.02.2-.02.2-.01.2-.01.19-.01.2v.18.19l.01.18.01.18.01.17.02.17.03.17.02.17.03.15.04.16.04.15.04.15.05.14.05.14.05.13.06.13.06.13.07.12.07.12.08.11.08.11.08.1.09.1.1.1.1.1.11.1.12.09.12.09.12.09.13.09.14.08.14.09.14.08.15.07.16.08.16.07.16.07.17.06.17.07.18.06.19.06.18.05.19.05.2.05.2.05.2.04.21.05.21.03.21.04.22.03.22.03.23.03.23.02.23.02.23.02.24.01.24.02h.25l.25.01h.25 436.82l.88-.02.89-.05.9-.1.91-.12.91-.16.91-.2.92-.23.92-.26.91-.29.92-.32.91-.35.91-.38.9-.4.9-.44.88-.46.88-.48.88-.51.85-.53.85-.55.83-.58.82-.6.81-.61.78-.64.77-.65.75-.67.72-.69.71-.7.68-.72.66-.73.63-.75.61-.76.57-.76.55-.78.52-.79.48-.8.46-.8.42-.82.38-.82.35-.82.31-.83 94.27-269.27.08-.24.08-.23.07-.23.07-.24.07-.23.06-.22.05-.23.06-.22.05-.22.04-.22.04-.22.04-.21.03-.22.03-.2.03-.21.02-.2.02-.21.01-.19.01-.2.01-.19v-.19l-.01-.18v-.18l-.01-.18-.02-.18-.02-.17-.02-.16-.03-.17-.03-.16-.03-.15-.04-.15-.04-.15-.05-.14-.05-.14-.05-.14-.06-.13-.07-.12-.06-.12-.07-.12-.08-.11-.08-.11-.09-.1-.09-.11-.09-.1-.11-.1-.11-.09-.11-.1-.12-.09-.12-.09-.14-.08-.13-.09-.14-.08-.15-.08-.15-.07-.15-.08-.16-.07-.17-.07-.17-.07-.17-.06-.18-.06-.18-.06-.19-.05-.19-.06-.19-.05-.2-.04-.2-.05-.21-.04-.21-.04-.22-.03-.22-.04-.22-.03-.22-.02-.23-.03-.23-.02-.24-.01-.24-.02-.24-.01-.24-.01h-.25-.25-436.82zm-24.2-165.63-.51.03-.52.06-.52.08-.53.09-.53.12-.53.14-.54.16-.53.17-.54.2-.54.21-.53.23-.53.24-.54.26-.52.28-.53.29-.51.3-.52.32-.5.33-.5.35-.49.35-.48.37-.47.37-.46.39-.45.4-.43.4-.42.42-.41.42-.4.43-.37.43-.37.44-.34.45-.33.45-.31.46-.28.46-.27.46-.25.47-.22.47-.21.47-.18.47-4.71 13.32-.56 1.52-.62 1.49-.67 1.47-.72 1.46-.77 1.42-.81 1.41-.87 1.38-.9 1.36-.95 1.33-1 1.3-1.03 1.27-1.07 1.24-1.11 1.22-1.15 1.18-1.18 1.15-1.22 1.12-1.24 1.08-1.28 1.05-1.31 1.01-1.34.97-1.36.94-1.39.89-1.42.86-1.43.82-1.46.77-1.48.73-1.49.69-1.52.64-1.53.6-1.54.55-1.56.5-1.57.45-1.58.41-1.59.35-1.6.3-1.6.25-1.61.19-1.61.14-1.62.09-1.61.03h-20.55-.32l-.33.03-.32.03-.32.05-.32.06-.31.07-.31.08-.3.1-.3.11-.29.12-.29.13-.28.14-.27.15-.27.16-.26.17-.26.19-.25.19-.24.2-.23.21-.23.21-.22.23-.21.23-.2.25-.19.24-.18.26-.17.26-.16.27-.16.28-.14.28-.13.29-.12.29-.11.3-.09.3-.09.31-.07.31-.06.31-.05.32-.03.33-.02.32-.01.33v286.54l63.28-180.75.69-1.86.76-1.83.82-1.82.89-1.79.96-1.76 1.01-1.74 1.07-1.71 1.13-1.68 1.19-1.65 1.24-1.62 1.29-1.58 1.34-1.55 1.39-1.51 1.44-1.48 1.48-1.44 1.52-1.39 1.56-1.36 1.61-1.31 1.63-1.27 1.68-1.22 1.71-1.18 1.73-1.12 1.77-1.08 1.8-1.03 1.82-.97 1.84-.93 1.87-.86 1.89-.82 1.9-.75 1.92-.7 1.94-.63 1.95-.58 1.96-.51 1.97-.45 1.97-.38 1.98-.31 1.98-.25 1.99-.18 1.98-.11 1.99-.04h345.65v-61.34l-.01-.33-.02-.32-.04-.33-.04-.32-.06-.31-.07-.31-.09-.31-.1-.3-.1-.3-.12-.29-.13-.29-.14-.28-.16-.28-.16-.27-.17-.26-.18-.26-.19-.24-.2-.25-.21-.23-.22-.23-.23-.21-.23-.21-.24-.2-.25-.19-.26-.19-.26-.17-.27-.16-.27-.15-.28-.14-.29-.13-.29-.12-.3-.11-.31-.1-.3-.08-.31-.07-.32-.06-.32-.05-.32-.03-.33-.03h-.33-197.73l-1.48-.02-1.48-.07-1.5-.11-1.51-.15-1.52-.19-1.52-.24-1.54-.27-1.53-.32-1.54-.35-1.54-.39-1.54-.43-1.53-.46-1.54-.5-1.53-.54-1.52-.56-1.52-.61-1.5-.63-1.5-.67-1.48-.69-1.47-.73-1.46-.76-1.44-.79-1.42-.81-1.4-.84-1.38-.87-1.36-.89-1.33-.92-1.31-.95-1.28-.96-1.25-.99-1.23-1.02-1.19-1.03-1.16-1.05-1.12-1.08-1.09-1.09-1.05-1.11-1.02-1.13-.97-1.15-.93-1.16-.89-1.18-14.8-20.24-.39-.51-.41-.5-.45-.51-.47-.5-.5-.5-.52-.5-.55-.5-.56-.48-.59-.49-.61-.47-.63-.47-.64-.47-.66-.45-.68-.45-.69-.44-.7-.43-.71-.42-.73-.4-.73-.4-.74-.38-.74-.37-.76-.36-.75-.34-.76-.33-.76-.32-.76-.29-.76-.29-.76-.26-.75-.25-.75-.23-.75-.2-.73-.2-.73-.17-.72-.14-.71-.13-.7-.11-.69-.08-.67-.06-.65-.04-.64-.01h-68.52z"/></defs><use fill="#fff" xlink:href="#a"/><use fill="none" xlink:href="#a"/></svg>