<svg enable-background="new 0 0 251.479 251.479" viewBox="0 0 251.479 251.479" xmlns="http://www.w3.org/2000/svg"><path d="m209.355 135.551c-4.143 0-7.5 3.358-7.5 7.5v76.109h-152.221v-76.109c0-4.142-3.357-7.5-7.5-7.5s-7.5 3.358-7.5 7.5v83.609c0 4.142 3.357 7.5 7.5 7.5h167.221c4.143 0 7.5-3.358 7.5-7.5v-83.609c0-4.142-3.358-7.5-7.5-7.5z"/><path d="m249.282 137.748-118.247-118.233c-2.928-2.929-7.677-2.928-10.606 0l-118.232 118.233c-2.929 2.929-2.929 7.678 0 10.606 1.465 1.464 3.385 2.197 5.304 2.197 1.92 0 3.839-.732 5.304-2.197l112.929-112.93 112.943 112.93c2.928 2.929 7.677 2.928 10.607-.001 2.927-2.928 2.927-7.677-.002-10.605z"/></svg>