<svg enable-background="new 0 0 438.536 438.536" height="438.536" viewBox="0 0 438.536 438.536" width="438.536" xmlns="http://www.w3.org/2000/svg"><path d="m414.41 24.123c-16.077-16.081-35.447-24.123-58.095-24.123h-274.087c-22.648 0-42.018 8.042-58.102 24.123-16.081 16.084-24.123 35.453-24.123 58.102v274.084c0 22.647 8.042 42.018 24.123 58.102 16.084 16.084 35.454 24.126 58.102 24.126h274.084c22.648 0 42.018-8.042 58.095-24.126 16.084-16.084 24.126-35.454 24.126-58.102v-274.084c-.001-22.649-8.043-42.021-24.123-58.102zm-48.961 213.416c0 4.948-1.811 9.236-5.421 12.847-3.621 3.614-7.905 5.428-12.854 5.428h-91.354v91.358c0 4.948-1.817 9.232-5.432 12.847-3.61 3.62-7.897 5.427-12.847 5.427h-36.543c-4.948 0-9.231-1.807-12.847-5.427-3.617-3.614-5.426-7.898-5.426-12.847v-91.358h-91.362c-4.948 0-9.229-1.813-12.847-5.428-3.615-3.61-5.424-7.898-5.424-12.847v-36.547c0-4.948 1.809-9.231 5.424-12.847 3.617-3.617 7.898-5.426 12.847-5.426h91.363v-91.359c0-4.949 1.809-9.233 5.426-12.847 3.616-3.618 7.898-5.428 12.847-5.428h36.543c4.949 0 9.236 1.81 12.847 5.428 3.614 3.614 5.432 7.898 5.432 12.847v91.36h91.354c4.948 0 9.232 1.809 12.854 5.426 3.613 3.615 5.421 7.898 5.421 12.847v36.546z"/></svg>