<svg enable-background="new 0 0 310 310" viewBox="0 0 310 310" xmlns="http://www.w3.org/2000/svg"><path d="m300.606 159.727-45.333-45.333c-5.857-5.858-15.355-5.858-21.213 0l-9.06 9.06v-108.454c0-8.284-6.716-15-15-15h-190c-8.284 0-15 6.716-15 15v240.002c0 8.284 6.716 15 15 15h85v24.998c0 8.284 6.716 15 15 15h45.333c3.979 0 7.794-1.581 10.607-4.394l124.667-124.667c5.858-5.858 5.858-15.354-.001-21.212zm-265.606-129.727h160v123.454l-85.606 85.605c-.302.301-.581.619-.854.942h-73.54zm124.12 250h-24.12v-24.121l109.667-109.666 24.12 24.12z"/></svg>