
<svg version="1.1" id="Layer_1" xmlns="http://www.w3.org/2000/svg" xmlns:xlink="http://www.w3.org/1999/xlink" x="0px" y="0px"
	 width="622.08px" height="622.08px" viewBox="0 0 622.08 622.08" enable-background="new 0 0 622.08 622.08" xml:space="preserve">
<path d="M276.51,0C124.002,0,0,123.949,0,276.391c0,152.44,124.003,276.391,276.511,276.391c70.04,0,134.043-26.061,182.811-69.1
	l133.395,133.34c6.748,6.744,17.555,6.744,24.303,0c6.75-6.746,6.75-17.816,0-24.562L483.894,459.392
	c43.084-48.75,69.129-112.969,69.129-183C553.021,123.95,429.019,0,276.51,0L276.51,0z M276.51,34.549
	c133.827,0,241.946,108.07,241.946,241.842c0,133.77-108.119,241.842-241.946,241.842c-133.826,0-241.947-108.072-241.947-241.842
	C34.563,142.62,142.682,34.549,276.51,34.549z"/>
</svg>
